<?xml version="1.0" standalone="no"?>
<!DOCTYPE svg PUBLIC "-//W3C//DTD SVG 20010904//EN"
 "http://www.w3.org/TR/2001/REC-SVG-20010904/DTD/svg10.dtd">
<svg version="1.0" xmlns="http://www.w3.org/2000/svg"
 width="512.000000pt" height="512.000000pt" viewBox="0 0 512.000000 512.000000"
 preserveAspectRatio="xMidYMid meet">

<g transform="translate(0.000000,512.000000) scale(0.100000,-0.100000)"
fill="#000000" stroke="none">
<path d="M378 4245 c-135 -49 -219 -180 -204 -317 11 -108 76 -202 174 -250
l47 -23 2165 0 2165 0 46 23 c62 30 113 82 146 145 38 73 39 189 3 262 -34 69
-99 129 -166 154 -55 21 -57 21 -2197 20 -1790 0 -2148 -3 -2179 -14z"/>
<path d="M411 2859 c-89 -17 -173 -88 -215 -178 -29 -64 -29 -178 1 -242 30
-66 86 -124 151 -156 l57 -28 2155 0 2155 0 57 28 c111 55 172 153 173 277 0
62 -5 85 -28 132 -32 65 -89 121 -156 152 l-46 21 -2130 1 c-1172 1 -2150 -2
-2174 -7z"/>
<path d="M383 1456 c-54 -17 -117 -64 -153 -113 -112 -153 -56 -369 118 -455
l47 -23 2152 -3 2152 -2 55 21 c66 24 133 87 167 156 33 67 33 187 0 255 -29
60 -89 120 -149 150 l-47 23 -2150 2 c-1757 1 -2158 -1 -2192 -11z"/>
</g>
</svg>
