<?xml version="1.0" standalone="no"?>
<!DOCTYPE svg PUBLIC "-//W3C//DTD SVG 20010904//EN"
 "http://www.w3.org/TR/2001/REC-SVG-20010904/DTD/svg10.dtd">
<svg version="1.0" xmlns="http://www.w3.org/2000/svg"
 width="512.000000pt" height="512.000000pt" viewBox="0 0 512.000000 512.000000"
 preserveAspectRatio="xMidYMid meet">

<g transform="translate(0.000000,512.000000) scale(0.100000,-0.100000)"
fill="#000000" stroke="none">
<path d="M405 4251 c-134 -33 -229 -156 -229 -296 0 -119 69 -228 177 -276
l52 -24 2155 0 2155 0 52 24 c108 48 177 157 177 276 0 119 -60 215 -169 273
l-50 27 -2145 2 c-1180 0 -2158 -2 -2175 -6z"/>
<path d="M339 2827 c-117 -60 -185 -192 -161 -312 23 -111 72 -178 164 -224
l61 -31 2158 0 2157 0 63 33 c219 113 219 421 0 534 l-63 33 -2158 0 -2158 0
-63 -33z"/>
<path d="M395 1456 c-138 -44 -219 -151 -219 -291 0 -119 60 -215 169 -273
l50 -27 2165 0 2165 0 50 27 c109 58 169 154 169 273 0 119 -69 228 -177 276
l-52 24 -2140 2 c-1706 1 -2148 -1 -2180 -11z"/>
</g>
</svg>
