<svg width="401" height="121" viewBox="0 0 401 121" fill="none" xmlns="http://www.w3.org/2000/svg">
<path fill-rule="evenodd" clip-rule="evenodd" d="M65.478 51.015C65.4336 49.9912 65.1687 48.989 64.7014 48.0771C64.234 47.1651 63.5752 46.3648 62.77 45.731C61.208 44.5743 58.865 43.9953 55.741 43.994C49.9803 43.994 47.1003 45.8706 47.101 49.624C47.1022 50.2898 47.2665 50.9453 47.5794 51.5331C47.8923 52.1209 48.3443 52.6231 48.896 52.996C50.6414 54.1258 52.5955 54.8943 54.643 55.256C57.7663 55.95 60.4753 56.5983 62.77 57.201C64.9144 57.7539 67.0191 58.4505 69.07 59.286C70.1338 59.6988 71.1511 60.2227 72.105 60.849C73.0495 61.4666 73.8694 62.2563 74.522 63.177C75.2243 64.1961 75.7559 65.3229 76.096 66.513C76.5175 68.0519 76.7148 69.6436 76.682 71.239C76.7211 73.3029 76.2166 75.3407 75.219 77.148C74.2351 78.8684 72.8849 80.3514 71.264 81.492C69.4834 82.7296 67.5008 83.6473 65.405 84.204C63.0919 84.8376 60.7033 85.1528 58.305 85.141C51.227 85.141 45.9067 83.8436 42.344 81.249C38.7813 78.6543 36.9017 74.8086 36.705 69.712H46.515C46.5116 70.8245 46.7882 71.9199 47.3193 72.8975C47.8504 73.8751 48.6189 74.7033 49.554 75.306C51.7604 76.7402 54.3563 77.4569 56.986 77.358C60.208 77.358 62.6487 76.8013 64.308 75.688C65.0817 75.2182 65.7187 74.5539 66.1554 73.7611C66.5921 72.9683 66.8134 72.0749 66.797 71.17C66.8041 70.4764 66.7053 69.7857 66.504 69.122C66.2863 68.462 65.8945 67.8729 65.37 67.417C64.685 66.8362 63.9049 66.3782 63.064 66.063C61.8274 65.5957 60.5531 65.235 59.255 64.985C55.5457 64.2456 52.3367 63.493 49.628 62.727C47.2662 62.1125 45.0084 61.1517 42.928 59.876C41.2892 58.8682 39.9496 57.4406 39.048 55.741C38.1514 53.8059 37.7255 51.6861 37.805 49.555C37.7931 47.7136 38.1679 45.8903 38.905 44.203C39.6596 42.5049 40.8138 41.0145 42.269 39.859C43.9392 38.548 45.8379 37.5579 47.869 36.939C50.4212 36.1734 53.077 35.8097 55.741 35.861C58.4159 35.8261 61.0811 36.1894 63.649 36.939C65.834 37.577 67.8822 38.6138 69.69 39.997C71.3426 41.2796 72.6823 42.9209 73.608 44.797C74.5505 46.74 75.0739 48.8595 75.144 51.018L65.478 51.015Z" fill="#39639C"/>
<path fill-rule="evenodd" clip-rule="evenodd" d="M105.239 76.868C106.991 76.8786 108.729 76.5604 110.364 75.93C111.965 75.3112 113.404 74.337 114.574 73.081C115.851 71.6675 116.811 69.9981 117.392 68.184C118.121 65.8934 118.468 63.4984 118.419 61.095C118.419 55.6284 117.296 51.481 115.05 48.653C112.804 45.825 109.534 44.4117 105.24 44.413C100.943 44.413 97.6483 45.8264 95.355 48.653C93.0617 51.4797 91.914 55.626 91.912 61.092C91.912 66.5587 93.0713 70.555 95.39 73.081C97.7087 75.607 100.992 76.8694 105.239 76.868ZM105.239 85.14C97.7217 85.14 91.9493 83.0547 87.922 78.884C83.8947 74.7134 81.881 68.7134 81.881 60.884C81.8308 57.3244 82.35 53.7797 83.419 50.384C84.3412 47.4562 85.8901 44.7645 87.958 42.496C89.9942 40.3189 92.4982 38.6325 95.281 37.564C98.4639 36.3761 101.842 35.7994 105.239 35.864C108.623 35.8061 111.988 36.3828 115.159 37.564C117.946 38.6204 120.443 40.3234 122.444 42.533C124.471 44.8458 125.993 47.5567 126.911 50.492C127.981 53.9218 128.5 57.4996 128.448 61.092C128.448 69.0614 126.459 75.0614 122.481 79.092C118.503 83.1227 112.756 85.1387 105.239 85.14Z" fill="#39639C"/>
<path fill-rule="evenodd" clip-rule="evenodd" d="M188.414 83.5431V45.4531H173.769V37.3911H213.308L206.152 45.4531H198.592V83.5431H188.414Z" fill="#00B8E0"/>
<path fill-rule="evenodd" clip-rule="evenodd" d="M213.505 83.5431V45.4551L220.664 37.3911H223.682V83.5431H213.505Z" fill="#00B8E0"/>
<path fill-rule="evenodd" clip-rule="evenodd" d="M260.91 83.5431L240.116 52.5431V83.5431H230.67V37.3911H241.433L260.763 67.0701V37.3911H270.28V83.5431H260.91Z" fill="#39639C"/>
<path fill-rule="evenodd" clip-rule="evenodd" d="M304.769 51.0149C304.724 49.9911 304.458 48.9891 303.99 48.0773C303.523 47.1654 302.864 46.3651 302.059 45.7309C300.497 44.5742 298.154 43.9952 295.031 43.9939C289.272 43.9939 286.392 45.8706 286.391 49.6239C286.392 50.2897 286.556 50.9451 286.869 51.5329C287.182 52.1206 287.633 52.6229 288.185 52.9959C289.93 54.1259 291.884 54.8944 293.932 55.2559C297.054 55.9499 299.763 56.5982 302.059 57.2009C304.203 57.7542 306.308 58.4508 308.359 59.2859C309.424 59.699 310.442 60.2232 311.397 60.8499C312.341 61.4675 313.161 62.2572 313.814 63.1779C314.515 64.1977 315.047 65.3243 315.388 66.5139C315.808 68.0531 316.004 69.6448 315.971 71.2399C316.011 73.3037 315.508 75.3418 314.51 77.1489C313.526 78.8696 312.175 80.3527 310.554 81.4929C308.774 82.7307 306.792 83.6481 304.697 84.2039C302.384 84.8376 299.995 85.1529 297.597 85.1409C290.52 85.1409 285.199 83.8436 281.636 81.2489C278.073 78.6542 276.191 74.8086 275.992 69.7119H285.805C285.802 70.824 286.078 71.9191 286.608 72.8965C287.138 73.874 287.906 74.7025 288.84 75.3059C291.047 76.7398 293.644 77.4565 296.274 77.3579C299.497 77.3579 301.937 76.8012 303.595 75.6879C304.369 75.2185 305.006 74.5542 305.443 73.7614C305.88 72.9686 306.101 72.075 306.085 71.1699C306.091 70.4764 305.993 69.7859 305.792 69.1219C305.574 68.462 305.182 67.873 304.658 67.4169C303.973 66.8361 303.192 66.378 302.351 66.0629C301.115 65.596 299.842 65.2354 298.545 64.9849C294.833 64.2456 291.623 63.4929 288.915 62.7269C286.553 62.1127 284.295 61.1519 282.215 59.8759C280.575 58.8682 279.235 57.4406 278.332 55.7409C277.436 53.8059 277.01 51.6868 277.088 49.5559C277.076 47.7146 277.451 45.8913 278.188 44.2039C278.944 42.5057 280.1 41.0154 281.556 39.8599C283.227 38.5496 285.125 37.5596 287.156 36.9399C289.709 36.1739 292.365 35.8099 295.03 35.8609C297.705 35.8262 300.369 36.1895 302.937 36.9389C305.122 37.5776 307.17 38.6144 308.979 39.9969C310.631 41.2801 311.969 42.9213 312.895 44.7969C313.837 46.7401 314.36 48.8596 314.431 51.0179L304.769 51.0149Z" fill="#39639C"/>
<path fill-rule="evenodd" clip-rule="evenodd" d="M341.157 47.7481H341.087L334.864 66.0961H347.237L341.157 47.7481ZM353.24 83.5481L350.165 74.0251H332.227L328.787 83.5481H318.022L335.374 37.3911H347.161L364.296 83.5431L353.24 83.5481Z" fill="#39639C"/>
<path fill-rule="evenodd" clip-rule="evenodd" d="M144.521 64.08V83.543H134.344V55.948H165.901V64.08H144.521Z" fill="#39639C"/>
<path fill-rule="evenodd" clip-rule="evenodd" d="M134.344 45.4531H168.978V37.3911H134.344V45.4531Z" fill="#39639C"/>
</svg>
