<?xml version="1.0" standalone="no"?>
<!DOCTYPE svg PUBLIC "-//W3C//DTD SVG 20010904//EN"
 "http://www.w3.org/TR/2001/REC-SVG-20010904/DTD/svg10.dtd">
<svg version="1.0" xmlns="http://www.w3.org/2000/svg"
 width="512.000000pt" height="512.000000pt" viewBox="0 0 512.000000 512.000000"
 preserveAspectRatio="xMidYMid meet">

<g transform="translate(0.000000,512.000000) scale(0.100000,-0.100000)"
fill="#000000" stroke="none">
<path d="M2487 4790 c-161 -41 -275 -176 -285 -337 -4 -65 -3 -75 10 -70 8 3
61 13 117 22 133 23 402 16 535 -12 l88 -20 -4 76 c-11 189 -160 336 -350 346
-40 3 -90 0 -111 -5z"/>
<path d="M2332 4245 c-456 -83 -840 -408 -997 -845 -65 -181 -67 -201 -75
-730 -8 -526 -9 -537 -71 -724 -66 -197 -194 -394 -325 -498 -163 -130 -198
-176 -210 -281 -14 -120 50 -233 163 -289 l68 -33 1675 0 1675 0 68 33 c147
73 205 239 136 388 -21 43 -49 71 -195 193 -160 134 -282 348 -351 615 -26 99
-26 108 -33 591 -8 534 -10 554 -75 735 -158 440 -544 765 -1002 845 -105 18
-349 18 -451 0z"/>
<path d="M2020 671 c0 -5 24 -42 53 -82 193 -271 557 -347 845 -177 73 43 179
150 215 216 l28 52 -570 0 c-327 0 -571 -4 -571 -9z"/>
</g>
</svg>
