<?xml version="1.0" standalone="no"?>
<!DOCTYPE svg PUBLIC "-//W3C//DTD SVG 20010904//EN"
 "http://www.w3.org/TR/2001/REC-SVG-20010904/DTD/svg10.dtd">
<svg version="1.0" xmlns="http://www.w3.org/2000/svg"
 width="512.000000pt" height="512.000000pt" viewBox="0 0 512.000000 512.000000"
 preserveAspectRatio="xMidYMid meet">

<g transform="translate(0.000000,512.000000) scale(0.100000,-0.100000)"
fill="#000000" stroke="none">
<path d="M2500 4790 c-160 -34 -286 -177 -298 -341 l-5 -67 59 14 c33 7 113
19 180 25 130 12 292 2 429 -26 38 -8 74 -15 79 -15 5 0 6 32 3 72 -19 221
-231 382 -447 338z"/>
<path d="M2405 4254 c-305 -47 -537 -159 -744 -359 -159 -154 -265 -321 -330
-518 -61 -188 -63 -201 -71 -727 -7 -478 -7 -487 -33 -586 -80 -310 -201 -495
-457 -697 -76 -60 -112 -131 -112 -223 -1 -92 28 -160 93 -218 92 -82 -60 -76
1809 -76 1869 0 1717 -6 1809 76 65 58 94 126 93 218 0 97 -36 164 -122 231
-207 159 -333 335 -414 577 -57 169 -58 179 -66 693 -7 522 -9 543 -71 732
-64 196 -171 364 -328 516 -181 176 -376 281 -621 338 -83 20 -361 34 -435 23z"/>
<path d="M2043 638 c172 -292 539 -397 842 -240 79 41 215 169 253 240 l23 42
-571 0 -572 0 25 -42z"/>
</g>
</svg>
